<?xml version="1.0" encoding="UTF-8"?>
<svg xmlns="http://www.w3.org/2000/svg" xmlns:xlink="http://www.w3.org/1999/xlink" width="30pt" height="30pt" viewBox="0 0 30 30" version="1.1">
<g id="surface1">
<path style=" stroke:none;fill-rule:nonzero;fill:rgb(100%,100%,100%);fill-opacity:1;" d="M 29.226562 22.128906 L 25.5 18.398438 C 24.46875 17.371094 22.796875 17.371094 21.769531 18.398438 L 20.074219 20.09375 C 19.296875 20.871094 18.027344 20.871094 17.25 20.09375 L 9.902344 12.738281 C 9.121094 11.957031 9.121094 10.695312 9.902344 9.914062 C 10.175781 9.640625 10.957031 8.855469 11.597656 8.21875 C 12.621094 7.195312 12.632812 5.527344 11.59375 4.488281 L 7.867188 0.769531 C 6.839844 -0.257812 5.164062 -0.257812 4.140625 0.769531 C 3.375 1.53125 3.125 1.773438 2.78125 2.117188 C -0.925781 5.824219 -0.925781 11.855469 2.78125 15.5625 L 14.421875 27.210938 C 18.140625 30.929688 24.15625 30.929688 27.871094 27.210938 L 29.226562 25.855469 C 30.257812 24.828125 30.257812 23.15625 29.226562 22.128906 Z M 5.378906 2.015625 C 5.722656 1.671875 6.28125 1.671875 6.625 2.015625 L 10.351562 5.730469 C 10.695312 6.074219 10.695312 6.632812 10.351562 6.976562 L 9.730469 7.597656 L 4.761719 2.628906 Z M 15.667969 25.96875 L 4.023438 14.320312 C 1.15625 11.453125 1 6.949219 3.539062 3.890625 L 8.496094 8.847656 C 7.191406 10.320312 7.246094 12.570312 8.65625 13.980469 L 16.003906 21.335938 C 17.414062 22.746094 19.664062 22.804688 21.140625 21.5 L 26.097656 26.453125 C 23.050781 28.992188 18.554688 28.859375 15.667969 25.96875 Z M 27.984375 24.613281 L 27.363281 25.234375 L 22.390625 20.261719 L 23.011719 19.640625 C 23.355469 19.296875 23.914062 19.296875 24.253906 19.640625 L 27.984375 23.371094 C 28.328125 23.710938 28.328125 24.269531 27.984375 24.613281 Z M 27.984375 24.613281 "/>
</g>
</svg>
