<?xml version="1.0" encoding="UTF-8"?>
<svg xmlns="http://www.w3.org/2000/svg" xmlns:xlink="http://www.w3.org/1999/xlink" width="30pt" height="30pt"
     viewBox="0 0 30 30" version="1.1">
    <g id="surface1">
        <path style=" stroke:none;fill-rule:nonzero;fill:rgb(100%,100%,100%);fill-opacity:1;"
              d="M 24.957031 5.214844 C 22.667969 1.902344 19.039062 0 15 0 C 10.960938 0 7.332031 1.902344 5.042969 5.214844 C 2.761719 8.515625 2.238281 12.6875 3.632812 16.378906 C 4.003906 17.386719 4.597656 18.363281 5.390625 19.28125 L 14.203125 29.628906 C 14.402344 29.863281 14.691406 30 15 30 C 15.308594 30 15.601562 29.863281 15.800781 29.628906 L 24.609375 19.285156 C 25.402344 18.363281 25.996094 17.382812 26.367188 16.382812 C 27.761719 12.6875 27.238281 8.515625 24.957031 5.214844 Z M 24.402344 15.648438 C 24.117188 16.421875 23.648438 17.183594 23.019531 17.917969 C 23.015625 17.917969 23.015625 17.917969 23.011719 17.921875 L 15 27.332031 L 6.984375 17.917969 C 6.351562 17.183594 5.886719 16.421875 5.597656 15.644531 C 4.441406 12.59375 4.882812 9.140625 6.769531 6.410156 C 8.660156 3.667969 11.660156 2.097656 15 2.097656 C 18.339844 2.097656 21.339844 3.667969 23.230469 6.410156 C 25.121094 9.140625 25.558594 12.59375 24.402344 15.648438 Z M 24.402344 15.648438 "/>
        <path style=" stroke:none;fill-rule:nonzero;fill:rgb(100%,100%,100%);fill-opacity:1;"
              d="M 15 6.222656 C 11.761719 6.222656 9.125 8.859375 9.125 12.097656 C 9.125 15.335938 11.761719 17.972656 15 17.972656 C 18.238281 17.972656 20.875 15.335938 20.875 12.097656 C 20.875 8.859375 18.238281 6.222656 15 6.222656 Z M 15 15.875 C 12.917969 15.875 11.222656 14.179688 11.222656 12.097656 C 11.222656 10.015625 12.917969 8.320312 15 8.320312 C 17.082031 8.320312 18.777344 10.015625 18.777344 12.097656 C 18.777344 14.179688 17.082031 15.875 15 15.875 Z M 15 15.875 "/>
    </g>
</svg>
