<?xml version="1.0" encoding="UTF-8"?>
<svg xmlns="http://www.w3.org/2000/svg" xmlns:xlink="http://www.w3.org/1999/xlink" width="54px" height="54px" viewBox="0 0 54 54" version="1.1">
<g id="surface1">
<path style=" stroke:none;fill-rule:nonzero;fill:rgb(100%,54.509804%,0%);fill-opacity:1;" d="M 46.34375 31.171875 L 41.3125 27.398438 C 41.3125 27.296875 41.3125 27.195312 41.3125 27.089844 C 41.320312 24.175781 40.488281 21.320312 38.914062 18.863281 L 41.25 13.023438 C 41.382812 12.691406 41.304688 12.308594 41.050781 12.054688 C 40.796875 11.800781 40.414062 11.722656 40.078125 11.855469 L 34.242188 14.191406 C 32.324219 12.964844 30.160156 12.1875 27.902344 11.90625 L 26.867188 8.804688 C 26.746094 8.4375 26.402344 8.191406 26.015625 8.191406 C 25.625 8.191406 25.28125 8.4375 25.160156 8.804688 L 24.125 11.90625 C 22.726562 12.078125 21.355469 12.445312 20.054688 12.996094 L 17.609375 10.828125 C 17.320312 10.570312 16.898438 10.527344 16.5625 10.722656 C 16.230469 10.917969 16.054688 11.304688 16.132812 11.683594 L 16.789062 14.886719 C 14.082031 16.925781 12.132812 19.804688 11.246094 23.074219 L 8.035156 23.660156 C 7.652344 23.730469 7.359375 24.035156 7.304688 24.417969 C 7.25 24.800781 7.445312 25.175781 7.792969 25.351562 L 10.714844 26.8125 C 10.714844 26.90625 10.714844 27 10.714844 27.089844 C 10.707031 30.007812 11.542969 32.863281 13.113281 35.320312 L 10.777344 41.15625 C 10.644531 41.492188 10.722656 41.871094 10.976562 42.128906 C 11.230469 42.382812 11.613281 42.460938 11.949219 42.328125 L 17.785156 39.992188 C 19.085938 40.824219 20.507812 41.453125 22 41.859375 L 22.582031 45.070312 C 22.652344 45.453125 22.957031 45.746094 23.339844 45.800781 C 23.726562 45.855469 24.101562 45.660156 24.273438 45.3125 L 25.734375 42.386719 C 25.832031 42.390625 25.921875 42.390625 26.015625 42.390625 C 28.351562 42.390625 30.660156 41.855469 32.757812 40.824219 L 35.320312 42.851562 C 35.625 43.09375 36.050781 43.113281 36.375 42.898438 C 36.699219 42.6875 36.847656 42.289062 36.75 41.917969 L 35.914062 38.753906 C 37.519531 37.390625 38.828125 35.710938 39.757812 33.824219 L 45.957031 32.777344 C 46.308594 32.71875 46.59375 32.453125 46.679688 32.101562 C 46.765625 31.753906 46.632812 31.386719 46.34375 31.171875 Z M 38.992188 32.125 C 38.699219 32.175781 38.445312 32.371094 38.324219 32.640625 C 37.421875 34.628906 36.054688 36.371094 34.339844 37.71875 C 34.058594 37.9375 33.933594 38.308594 34.027344 38.65625 L 34.320312 39.765625 L 33.421875 39.054688 C 33.136719 38.832031 32.75 38.796875 32.433594 38.96875 C 30.460938 40.035156 28.253906 40.589844 26.015625 40.589844 C 25.765625 40.589844 25.503906 40.582031 25.242188 40.566406 C 24.882812 40.546875 24.546875 40.742188 24.386719 41.0625 L 23.871094 42.089844 L 23.667969 40.964844 C 23.601562 40.609375 23.332031 40.328125 22.980469 40.25 C 21.339844 39.871094 19.785156 39.191406 18.398438 38.238281 C 18.148438 38.066406 17.835938 38.03125 17.554688 38.144531 L 13.230469 39.875 L 14.960938 35.546875 C 15.070312 35.269531 15.035156 34.953125 14.867188 34.707031 C 13.328125 32.464844 12.507812 29.808594 12.515625 27.089844 C 12.515625 26.84375 12.523438 26.582031 12.535156 26.316406 C 12.558594 25.957031 12.363281 25.621094 12.039062 25.460938 L 11.011719 24.945312 L 12.140625 24.742188 C 12.492188 24.675781 12.773438 24.410156 12.855469 24.058594 C 13.605469 20.792969 15.546875 17.921875 18.300781 16.011719 C 18.59375 15.804688 18.738281 15.445312 18.667969 15.089844 L 18.4375 13.964844 L 19.296875 14.726562 C 19.5625 14.964844 19.949219 15.019531 20.273438 14.867188 C 21.722656 14.1875 23.277344 13.769531 24.871094 13.640625 C 25.230469 13.609375 25.535156 13.367188 25.652344 13.027344 L 26.015625 11.9375 L 26.378906 13.027344 C 26.492188 13.367188 26.796875 13.609375 27.15625 13.640625 C 29.476562 13.835938 31.707031 14.628906 33.628906 15.941406 C 33.878906 16.113281 34.195312 16.148438 34.472656 16.035156 L 38.796875 14.304688 L 37.070312 18.632812 C 36.957031 18.910156 36.992188 19.226562 37.160156 19.472656 C 38.699219 21.714844 39.519531 24.371094 39.515625 27.089844 C 39.515625 27.324219 39.507812 27.558594 39.496094 27.792969 C 39.480469 28.09375 39.617188 28.378906 39.855469 28.558594 L 43.585938 31.351562 Z M 38.992188 32.125 "/>
<path style=" stroke:none;fill-rule:nonzero;fill:rgb(100%,54.509804%,0%);fill-opacity:1;" d="M 26.914062 18.089844 C 26.914062 18.585938 26.511719 18.992188 26.015625 18.992188 C 25.515625 18.992188 25.113281 18.585938 25.113281 18.089844 C 25.113281 17.59375 25.515625 17.191406 26.015625 17.191406 C 26.511719 17.191406 26.914062 17.59375 26.914062 18.089844 Z M 26.914062 18.089844 "/>
<path style=" stroke:none;fill-rule:nonzero;fill:rgb(100%,54.509804%,0%);fill-opacity:1;" d="M 35.015625 24.390625 C 35.015625 24.886719 34.609375 25.289062 34.113281 25.289062 C 33.617188 25.289062 33.214844 24.886719 33.214844 24.390625 C 33.214844 23.894531 33.617188 23.492188 34.113281 23.492188 C 34.609375 23.492188 35.015625 23.894531 35.015625 24.390625 Z M 35.015625 24.390625 "/>
<path style=" stroke:none;fill-rule:nonzero;fill:rgb(100%,54.509804%,0%);fill-opacity:1;" d="M 29.613281 36.992188 C 29.613281 37.488281 29.210938 37.890625 28.714844 37.890625 C 28.21875 37.890625 27.8125 37.488281 27.8125 36.992188 C 27.8125 36.492188 28.21875 36.089844 28.714844 36.089844 C 29.210938 36.089844 29.613281 36.492188 29.613281 36.992188 Z M 29.613281 36.992188 "/>
<path style=" stroke:none;fill-rule:nonzero;fill:rgb(100%,54.509804%,0%);fill-opacity:1;" d="M 29.613281 24.390625 C 29.613281 24.886719 29.210938 25.289062 28.714844 25.289062 C 28.21875 25.289062 27.8125 24.886719 27.8125 24.390625 C 27.8125 23.894531 28.21875 23.492188 28.714844 23.492188 C 29.210938 23.492188 29.613281 23.894531 29.613281 24.390625 Z M 29.613281 24.390625 "/>
<path style=" stroke:none;fill-rule:nonzero;fill:rgb(100%,54.509804%,0%);fill-opacity:1;" d="M 22.414062 36.992188 C 22.414062 37.488281 22.011719 37.890625 21.515625 37.890625 C 21.015625 37.890625 20.613281 37.488281 20.613281 36.992188 C 20.613281 36.492188 21.015625 36.089844 21.515625 36.089844 C 22.011719 36.089844 22.414062 36.492188 22.414062 36.992188 Z M 22.414062 36.992188 "/>
<path style=" stroke:none;fill-rule:nonzero;fill:rgb(100%,54.509804%,0%);fill-opacity:1;" d="M 18.8125 29.789062 C 18.8125 30.289062 18.410156 30.691406 17.914062 30.691406 C 17.417969 30.691406 17.015625 30.289062 17.015625 29.789062 C 17.015625 29.292969 17.417969 28.890625 17.914062 28.890625 C 18.410156 28.890625 18.8125 29.292969 18.8125 29.789062 Z M 18.8125 29.789062 "/>
<path style=" stroke:none;fill-rule:nonzero;fill:rgb(100%,54.509804%,0%);fill-opacity:1;" d="M 23.3125 23.488281 C 23.3125 22 22.105469 20.789062 20.613281 20.789062 C 19.121094 20.789062 17.914062 22 17.914062 23.488281 C 17.914062 24.980469 19.121094 26.191406 20.613281 26.191406 C 22.105469 26.1875 23.3125 24.980469 23.3125 23.488281 Z M 20.613281 24.390625 C 20.117188 24.390625 19.714844 23.988281 19.714844 23.488281 C 19.714844 22.992188 20.117188 22.589844 20.613281 22.589844 C 21.109375 22.589844 21.515625 22.992188 21.515625 23.488281 C 21.511719 23.988281 21.109375 24.390625 20.613281 24.390625 Z M 20.613281 24.390625 "/>
<path style=" stroke:none;fill-rule:nonzero;fill:rgb(100%,54.509804%,0%);fill-opacity:1;" d="M 33.214844 27.988281 C 31.722656 27.988281 30.515625 29.199219 30.515625 30.691406 C 30.515625 32.179688 31.722656 33.390625 33.214844 33.390625 C 34.707031 33.390625 35.914062 32.179688 35.914062 30.691406 C 35.914062 29.199219 34.703125 27.992188 33.214844 27.988281 Z M 33.214844 31.589844 C 32.71875 31.589844 32.3125 31.1875 32.3125 30.691406 C 32.3125 30.191406 32.71875 29.789062 33.214844 29.789062 C 33.710938 29.789062 34.113281 30.191406 34.113281 30.691406 C 34.113281 31.1875 33.710938 31.589844 33.214844 31.589844 Z M 33.214844 31.589844 "/>
<path style=" stroke:none;fill-rule:nonzero;fill:rgb(100%,54.509804%,0%);fill-opacity:1;" d="M 24.214844 27.988281 C 22.722656 27.988281 21.515625 29.199219 21.515625 30.691406 C 21.515625 32.179688 22.722656 33.390625 24.214844 33.390625 C 25.707031 33.390625 26.914062 32.179688 26.914062 30.691406 C 26.914062 29.199219 25.703125 27.992188 24.214844 27.988281 Z M 24.214844 31.589844 C 23.71875 31.589844 23.3125 31.1875 23.3125 30.691406 C 23.3125 30.191406 23.71875 29.789062 24.214844 29.789062 C 24.710938 29.789062 25.113281 30.191406 25.113281 30.691406 C 25.113281 31.1875 24.710938 31.589844 24.214844 31.589844 Z M 24.214844 31.589844 "/>
<path style=" stroke:none;fill-rule:nonzero;fill:rgb(100%,54.509804%,0%);fill-opacity:1;" d="M 54 26.101562 L 51.28125 26.101562 C 50.8125 13.386719 40.613281 3.1875 27.898438 2.71875 L 27.898438 0 L 26.101562 0 L 26.101562 2.71875 C 13.386719 3.1875 3.1875 13.386719 2.71875 26.101562 L 0 26.101562 L 0 27.898438 L 2.71875 27.898438 C 3.1875 40.613281 13.386719 50.8125 26.101562 51.28125 L 26.101562 54 L 27.898438 54 L 27.898438 51.28125 C 40.613281 50.8125 50.8125 40.613281 51.28125 27.898438 L 54 27.898438 Z M 27.898438 49.480469 L 27.898438 46.800781 L 26.101562 46.800781 L 26.101562 49.480469 C 14.40625 49.019531 4.980469 39.59375 4.519531 27.898438 L 7.199219 27.898438 L 7.199219 26.101562 L 4.519531 26.101562 C 4.980469 14.40625 14.40625 4.980469 26.101562 4.519531 L 26.101562 7.199219 L 27.898438 7.199219 L 27.898438 4.519531 C 39.59375 4.980469 49.019531 14.410156 49.480469 26.101562 L 46.800781 26.101562 L 46.800781 27.898438 L 49.480469 27.898438 C 49.019531 39.59375 39.59375 49.019531 27.898438 49.480469 Z M 27.898438 49.480469 "/>
</g>
</svg>
