<?xml version="1.0" encoding="UTF-8"?>
<svg xmlns="http://www.w3.org/2000/svg" xmlns:xlink="http://www.w3.org/1999/xlink" width="54px" height="54px" viewBox="0 0 54 54" version="1.1">
<g id="surface1">
<path style=" stroke:none;fill-rule:nonzero;fill:rgb(100%,54.509804%,0%);fill-opacity:1;" d="M 44.507812 21.886719 L 41.34375 21.886719 L 41.34375 25.050781 L 38.179688 25.050781 L 38.179688 28.214844 L 41.34375 28.214844 L 41.34375 31.378906 L 44.507812 31.378906 L 44.507812 28.214844 L 47.671875 28.214844 L 47.671875 25.050781 L 44.507812 25.050781 Z M 44.507812 21.886719 "/>
<path style=" stroke:none;fill-rule:nonzero;fill:rgb(100%,54.509804%,0%);fill-opacity:1;" d="M 24.382812 48.507812 L 25.417969 49.402344 L 26.453125 48.507812 C 31.414062 44.207031 36.023438 40.542969 39.722656 37.234375 C 40.738281 37.539062 41.8125 37.707031 42.925781 37.707031 C 49.03125 37.707031 54 32.738281 54 26.632812 C 54 23.621094 52.792969 20.886719 50.835938 18.886719 C 50.753906 10.960938 45.105469 4.597656 37.390625 4.597656 C 32.097656 4.597656 27.992188 7.765625 25.421875 12.441406 C 22.875 7.734375 18.832031 4.597656 13.554688 4.597656 C 5.714844 4.597656 0 11.125 0 19.058594 C 0 22.199219 0.933594 25.167969 2.902344 28.214844 L 0 28.214844 L 0 31.378906 L 5.292969 31.378906 C 9.597656 36.375 16.363281 41.558594 24.382812 48.507812 Z M 25.417969 45.222656 C 18.988281 39.691406 13.511719 35.359375 9.605469 31.378906 L 15.320312 31.378906 L 17.507812 27.003906 L 23.835938 39.660156 L 29.558594 28.214844 L 31.964844 28.214844 C 32.414062 31.328125 34.160156 34.023438 36.632812 35.738281 C 33.417969 38.558594 29.582031 41.648438 25.417969 45.222656 Z M 42.925781 34.542969 C 38.5625 34.542969 35.015625 30.992188 35.015625 26.632812 C 35.015625 22.269531 38.5625 18.722656 42.925781 18.722656 C 47.289062 18.722656 50.835938 22.269531 50.835938 26.632812 C 50.835938 30.992188 47.289062 34.542969 42.925781 34.542969 Z M 3.164062 19.058594 C 3.164062 12.617188 7.628906 7.761719 13.554688 7.761719 C 20.515625 7.761719 22.871094 14.417969 24 16.929688 L 26.835938 16.929688 C 27.125 16.261719 29.6875 7.761719 37.386719 7.761719 C 42.449219 7.761719 46.4375 11.382812 47.429688 16.515625 C 46.054688 15.902344 44.53125 15.558594 42.925781 15.558594 C 37.355469 15.558594 32.734375 19.691406 31.964844 25.050781 L 27.605469 25.050781 L 23.835938 32.585938 L 17.507812 19.929688 L 13.367188 28.214844 L 6.800781 28.214844 C 4.46875 25.230469 3.164062 22.3125 3.164062 19.058594 Z M 3.164062 19.058594 "/>
</g>
</svg>
