<svg id="Layer_1" enable-background="new 0 0 54 54" height="512" viewBox="0 0 512 512" width="512"
     xmlns="http://www.w3.org/2000/svg">
    <g fill="#ff8b00">
        <path d="m422 207.509h-30v30h-30v30h30v30h30v-30h30v-30h-30z"/>
        <path d="m231.176 459.911 9.824 8.514 9.824-8.514c47.016-40.747 90.74-75.498 125.796-106.889 9.622 2.914 19.82 4.487 30.38 4.487 57.897 0 105-47.103 105-105 0-28.552-11.461-54.474-30.017-73.422-.76-75.168-54.303-135.512-127.483-135.512-50.159 0-89.097 30.07-113.449 74.378-24.156-44.609-62.498-74.378-112.551-74.378-74.326 0-128.5 61.91-128.5 137.122 0 29.783 8.848 57.949 27.513 86.812h-27.513v30h50.193c40.807 47.388 104.965 96.518 180.983 162.402zm9.829-31.147c-60.978-52.44-112.898-93.489-149.926-131.255h54.192l20.729-41.459 60 120 54.271-108.541h22.806c4.24 29.51 20.794 55.092 44.274 71.36-30.515 26.721-66.859 56.006-106.346 89.895zm165.995-101.255c-41.355 0-75-33.645-75-75s33.645-75 75-75 75 33.645 75 75-33.645 75-75 75zm-377-146.812c0-61.069 42.346-107.121 98.5-107.121 66.024 0 88.345 63.137 99.068 86.933h26.863c2.737-6.326 27.06-86.933 100.068-86.933 47.994 0 85.793 34.337 95.222 83.026-13.058-5.84-27.517-9.093-42.722-9.093-52.804 0-96.623 39.183-103.924 90h-41.347l-35.728 71.459-60-120-39.271 78.541h-62.25c-22.099-28.272-34.479-55.958-34.479-86.812z"/>
    </g>
</svg>