<?xml version="1.0" encoding="UTF-8"?>
<svg xmlns="http://www.w3.org/2000/svg" xmlns:xlink="http://www.w3.org/1999/xlink" width="54px" height="54px"
     viewBox="0 0 48 48" version="1.1">
    <g id="surface1">
        <path style=" stroke:none;fill-rule:nonzero;fill:rgb(100%,54.509804%,0%);fill-opacity:1;"
              d="M 43.792969 7.570312 C 40.457031 7.441406 37.8125 4.726562 37.773438 1.386719 L 37.753906 0 L 10.246094 0 L 10.226562 1.386719 C 10.1875 4.726562 7.542969 7.441406 4.207031 7.570312 L 2.855469 7.621094 L 2.855469 18.933594 C 2.855469 29.148438 8.152344 38.628906 16.683594 43.671875 L 24 48 L 31.316406 43.671875 C 39.847656 38.628906 45.144531 29.148438 45.144531 18.933594 L 45.144531 7.621094 Z M 42.335938 18.933594 C 42.335938 28.160156 37.566406 36.714844 29.890625 41.253906 L 24 44.738281 L 18.109375 41.253906 C 10.433594 36.714844 5.664062 28.160156 5.664062 18.933594 L 5.664062 10.222656 C 9.390625 9.519531 12.292969 6.546875 12.914062 2.808594 L 35.085938 2.808594 C 35.707031 6.546875 38.609375 9.519531 42.335938 10.222656 Z M 42.335938 18.933594 "/>
        <path style=" stroke:none;fill-rule:nonzero;fill:rgb(100%,54.509804%,0%);fill-opacity:1;"
              d="M 25.40625 16.085938 L 22.59375 16.085938 L 22.59375 20.617188 L 18.066406 20.617188 L 18.066406 23.425781 L 22.59375 23.425781 L 22.59375 27.957031 L 25.40625 27.957031 L 25.40625 23.425781 L 29.933594 23.425781 L 29.933594 20.617188 L 25.40625 20.617188 Z M 25.40625 16.085938 "/>
        <path style=" stroke:none;fill-rule:nonzero;fill:rgb(100%,54.509804%,0%);fill-opacity:1;"
              d="M 24 9.738281 C 17.226562 9.738281 11.714844 15.25 11.714844 22.023438 C 11.714844 28.796875 17.226562 34.308594 24 34.308594 C 30.773438 34.308594 36.285156 28.796875 36.285156 22.023438 C 36.285156 15.25 30.773438 9.738281 24 9.738281 Z M 24 31.5 C 18.773438 31.5 14.523438 27.246094 14.523438 22.023438 C 14.523438 16.796875 18.773438 12.546875 24 12.546875 C 29.226562 12.546875 33.476562 16.796875 33.476562 22.023438 C 33.476562 27.246094 29.226562 31.5 24 31.5 Z M 24 31.5 "/>
    </g>
</svg>
