<?xml version="1.0" encoding="UTF-8"?>
<svg xmlns="http://www.w3.org/2000/svg" xmlns:xlink="http://www.w3.org/1999/xlink" width="54px" height="54px"
     viewBox="0 0 54 54" version="1.1">
    <g id="surface1">
        <path style=" stroke:none;fill-rule:nonzero;fill:rgb(100%,54.509804%,0%);fill-opacity:1;"
              d="M 4.507812 54 C 4.476562 54 4.445312 54 4.410156 54 C 3.058594 53.976562 1.949219 52.261719 1.773438 49.917969 C 1.671875 48.582031 1.410156 47.285156 1.132812 45.910156 C 0.882812 44.6875 0.628906 43.417969 0.5 42.121094 C -0.0703125 36.4375 -0.371094 29.714844 1.6875 22.96875 C 1.804688 22.585938 1.929688 22.207031 2.058594 21.828125 C 2.90625 19.382812 3.847656 17.527344 5.019531 15.984375 C 8.0625 11.992188 13.324219 10.242188 21.105469 10.652344 C 23.835938 10.796875 28.1875 11.390625 30.804688 11.980469 C 33.230469 12.523438 35.742188 12.714844 38.277344 12.550781 C 41.988281 12.3125 46.222656 11.246094 48.582031 9.960938 C 49.960938 9.210938 51.605469 9.417969 52.765625 10.488281 C 53.902344 11.53125 54.234375 13.113281 53.613281 14.519531 C 52.785156 16.386719 51.03125 18.660156 48.390625 21.28125 C 47.652344 22.011719 46.691406 22.984375 45.78125 24 C 43.351562 26.71875 34.535156 36.039062 23.085938 41.867188 C 20.78125 43.039062 18.460938 43.847656 16.191406 44.265625 C 13.851562 44.695312 10.679688 46.023438 8.835938 49.886719 C 8.785156 50 8.742188 50.167969 8.683594 50.359375 C 8.367188 51.453125 7.621094 54 4.507812 54 Z M 3.410156 23.492188 C 1.441406 29.9375 1.738281 36.4375 2.289062 41.945312 C 2.410156 43.148438 2.65625 44.371094 2.898438 45.554688 C 3.171875 46.921875 3.457031 48.335938 3.566406 49.785156 C 3.683594 51.304688 4.261719 52.121094 4.484375 52.207031 C 6.132812 52.203125 6.566406 51.199219 6.957031 49.855469 C 7.042969 49.570312 7.113281 49.324219 7.214844 49.113281 C 9.492188 44.324219 13.613281 42.910156 15.867188 42.496094 C 17.964844 42.105469 20.121094 41.355469 22.269531 40.261719 C 33.441406 34.578125 42.0625 25.460938 44.441406 22.800781 C 45.382812 21.75 46.371094 20.753906 47.121094 20.003906 C 49.601562 17.542969 51.234375 15.453125 51.96875 13.789062 C 52.335938 12.957031 51.992188 12.222656 51.546875 11.8125 C 51.082031 11.382812 50.285156 11.085938 49.445312 11.546875 C 46.4375 13.183594 41.726562 14.132812 38.394531 14.347656 C 35.6875 14.523438 33.003906 14.316406 30.410156 13.734375 C 27.875 13.164062 23.660156 12.589844 21.011719 12.453125 C 13.769531 12.070312 9.144531 13.542969 6.453125 17.078125 C 5.398438 18.460938 4.542969 20.15625 3.761719 22.417969 C 3.636719 22.773438 3.519531 23.132812 3.410156 23.492188 Z M 3.410156 23.492188 "/>
        <path style=" stroke:none;fill-rule:nonzero;fill:rgb(100%,54.509804%,0%);fill-opacity:1;"
              d="M 6.226562 45 C 6.148438 45 6.074219 44.988281 5.996094 44.96875 C 5.664062 44.882812 5.410156 44.613281 5.34375 44.273438 C 5.328125 44.195312 5.296875 44.0625 5.257812 43.890625 C 4.847656 42.050781 3.59375 36.464844 4.441406 32.222656 C 4.539062 31.738281 5.015625 31.421875 5.503906 31.519531 C 5.988281 31.617188 6.304688 32.089844 6.207031 32.578125 C 5.742188 34.910156 5.925781 38.164062 6.75 42.253906 C 9.914062 39.296875 13.519531 38.351562 15.050781 38.070312 C 16.847656 37.738281 18.757812 36.839844 20.21875 36.097656 C 20.660156 35.875 21.203125 36.050781 21.429688 36.492188 C 21.652344 36.9375 21.476562 37.476562 21.035156 37.703125 C 19.464844 38.503906 17.402344 39.46875 15.375 39.839844 C 13.835938 40.125 9.929688 41.167969 6.910156 44.6875 C 6.734375 44.886719 6.484375 45 6.226562 45 Z M 6.226562 45 "/>
        <path style=" stroke:none;fill-rule:nonzero;fill:rgb(100%,54.509804%,0%);fill-opacity:1;"
              d="M 6.226562 26.097656 C 6.128906 26.097656 6.027344 26.082031 5.929688 26.050781 C 5.460938 25.886719 5.210938 25.375 5.375 24.90625 C 6.042969 22.972656 7.707031 19.882812 8.601562 18.710938 C 10.398438 16.351562 13.550781 15.300781 18.824219 15.300781 C 19.320312 15.300781 19.726562 15.703125 19.726562 16.199219 C 19.726562 16.695312 19.320312 17.101562 18.824219 17.101562 C 14.167969 17.101562 11.457031 17.933594 10.03125 19.800781 C 9.234375 20.847656 7.683594 23.738281 7.074219 25.492188 C 6.949219 25.867188 6.597656 26.097656 6.226562 26.097656 Z M 6.226562 26.097656 "/>
        <path style=" stroke:none;fill-rule:nonzero;fill:rgb(100%,54.509804%,0%);fill-opacity:1;"
              d="M 28.726562 9.898438 C 28.226562 9.898438 27.824219 9.496094 27.824219 9 C 27.824219 6.519531 25.804688 4.5 23.324219 4.5 C 22.828125 4.5 22.425781 4.097656 22.425781 3.601562 C 22.425781 3.101562 22.828125 2.699219 23.324219 2.699219 C 26.800781 2.699219 29.625 5.527344 29.625 9 C 29.625 9.496094 29.222656 9.898438 28.726562 9.898438 Z M 28.726562 9.898438 "/>
        <path style=" stroke:none;fill-rule:nonzero;fill:rgb(100%,54.509804%,0%);fill-opacity:1;"
              d="M 32.324219 9.898438 C 31.828125 9.898438 31.425781 9.496094 31.425781 9 C 31.425781 8.503906 31.828125 8.101562 32.324219 8.101562 C 34.804688 8.101562 36.824219 6.082031 36.824219 3.601562 C 36.824219 3.101562 37.226562 2.699219 37.726562 2.699219 C 38.222656 2.699219 38.625 3.101562 38.625 3.601562 C 38.625 7.074219 35.796875 9.898438 32.324219 9.898438 Z M 32.324219 9.898438 "/>
        <path style=" stroke:none;fill-rule:nonzero;fill:rgb(100%,54.509804%,0%);fill-opacity:1;"
              d="M 32.324219 36 C 32.113281 36 31.898438 35.925781 31.726562 35.773438 C 31.355469 35.441406 31.320312 34.875 31.652344 34.5 C 38.253906 27.074219 33.605469 20.609375 33.402344 20.335938 C 33.109375 19.9375 33.191406 19.375 33.585938 19.078125 C 33.984375 18.78125 34.546875 18.863281 34.84375 19.261719 C 34.902344 19.339844 40.597656 27.148438 32.996094 35.699219 C 32.820312 35.898438 32.574219 36 32.324219 36 Z M 32.324219 36 "/>
        <path style=" stroke:none;fill-rule:nonzero;fill:rgb(100%,54.509804%,0%);fill-opacity:1;"
              d="M 32.324219 14.078125 C 32.277344 14.078125 32.234375 14.074219 32.1875 14.066406 C 31.589844 13.972656 31 13.867188 30.410156 13.734375 C 29.867188 13.613281 29.234375 13.492188 28.566406 13.371094 C 28.136719 13.296875 27.824219 12.921875 27.824219 12.488281 L 27.824219 2.699219 C 27.824219 1.210938 29.035156 0 30.523438 0 C 32.015625 0 33.226562 1.210938 33.226562 2.699219 L 33.226562 13.175781 C 33.226562 13.441406 33.109375 13.691406 32.910156 13.859375 C 32.746094 14 32.539062 14.078125 32.324219 14.078125 Z M 30.804688 11.980469 C 31.011719 12.023438 31.21875 12.066406 31.425781 12.109375 L 31.425781 2.699219 C 31.425781 2.203125 31.023438 1.800781 30.523438 1.800781 C 30.027344 1.800781 29.625 2.203125 29.625 2.699219 L 29.625 11.738281 C 30.046875 11.816406 30.441406 11.898438 30.804688 11.980469 Z M 30.804688 11.980469 "/>
        <path style=" stroke:none;fill-rule:nonzero;fill:rgb(100%,54.509804%,0%);fill-opacity:1;"
              d="M 26.023438 54 C 24.535156 54 23.324219 52.789062 23.324219 51.300781 L 23.324219 40.238281 C 23.324219 39.90625 23.503906 39.605469 23.792969 39.449219 C 24.960938 38.808594 26.15625 38.105469 27.34375 37.351562 C 27.621094 37.175781 27.972656 37.164062 28.257812 37.320312 C 28.546875 37.480469 28.726562 37.78125 28.726562 38.109375 L 28.726562 51.300781 C 28.726562 52.789062 27.515625 54 26.023438 54 Z M 25.125 40.769531 L 25.125 51.300781 C 25.125 51.796875 25.527344 52.199219 26.023438 52.199219 C 26.523438 52.199219 26.925781 51.796875 26.925781 51.300781 L 26.925781 39.722656 C 26.324219 40.085938 25.722656 40.433594 25.125 40.769531 Z M 25.125 40.769531 "/>
        <path style=" stroke:none;fill-rule:nonzero;fill:rgb(100%,54.509804%,0%);fill-opacity:1;"
              d="M 12.457031 13.144531 C 12.167969 13.144531 11.886719 13.003906 11.71875 12.757812 C 10.871094 11.53125 9.492188 10.800781 8.027344 10.800781 L 7.125 10.800781 C 5.636719 10.800781 4.425781 9.589844 4.425781 8.101562 C 4.425781 6.609375 5.636719 5.398438 7.125 5.398438 L 8.027344 5.398438 C 11.902344 5.398438 15.441406 7.691406 17.042969 11.234375 C 17.164062 11.5 17.144531 11.808594 17 12.058594 C 16.851562 12.3125 16.589844 12.476562 16.300781 12.5 C 14.996094 12.613281 13.78125 12.820312 12.695312 13.113281 C 12.617188 13.136719 12.539062 13.144531 12.457031 13.144531 Z M 7.125 7.199219 C 6.628906 7.199219 6.226562 7.605469 6.226562 8.101562 C 6.226562 8.597656 6.628906 9 7.125 9 L 8.027344 9 C 9.871094 9 11.617188 9.824219 12.8125 11.226562 C 13.441406 11.078125 14.101562 10.957031 14.789062 10.859375 C 13.308594 8.601562 10.769531 7.199219 8.027344 7.199219 Z M 7.125 7.199219 "/>
        <path style=" stroke:none;fill-rule:nonzero;fill:rgb(100%,54.509804%,0%);fill-opacity:1;"
              d="M 42.226562 42.300781 L 40.425781 42.300781 C 36.203125 42.300781 32.441406 39.613281 31.066406 35.613281 C 30.941406 35.238281 31.070312 34.824219 31.386719 34.59375 C 32.414062 33.84375 33.457031 33.039062 34.484375 32.207031 C 34.742188 32 35.09375 31.949219 35.402344 32.078125 C 35.707031 32.207031 35.917969 32.492188 35.945312 32.824219 C 36.164062 35.148438 38.089844 36.898438 40.425781 36.898438 L 42.226562 36.898438 C 43.714844 36.898438 44.925781 38.113281 44.925781 39.601562 C 44.925781 41.089844 43.714844 42.300781 42.226562 42.300781 Z M 33.003906 35.636719 C 34.285156 38.570312 37.1875 40.5 40.425781 40.5 L 42.226562 40.5 C 42.722656 40.5 43.125 40.09375 43.125 39.597656 C 43.125 39.101562 42.722656 38.699219 42.226562 38.699219 L 40.425781 38.699219 C 37.683594 38.699219 35.347656 36.976562 34.484375 34.507812 C 33.992188 34.890625 33.496094 35.269531 33.003906 35.636719 Z M 33.003906 35.636719 "/>
    </g>
</svg>
