<?xml version="1.0" encoding="UTF-8"?>
<svg xmlns="http://www.w3.org/2000/svg" xmlns:xlink="http://www.w3.org/1999/xlink" width="54px" height="54px"
     viewBox="0 0 54 54" version="1.1">
    <g id="surface1">
        <path style=" stroke:none;fill-rule:nonzero;fill:rgb(100%,54.509804%,0%);fill-opacity:1;"
              d="M 12.65625 37.808594 L 12.65625 44.402344 L 7.910156 44.402344 C 7.035156 44.402344 6.328125 45.109375 6.328125 45.984375 C 6.328125 46.859375 7.035156 47.566406 7.910156 47.566406 L 12.65625 47.566406 L 12.65625 52.417969 C 12.65625 53.292969 13.363281 54 14.238281 54 C 15.113281 54 15.820312 53.292969 15.820312 52.417969 L 15.820312 47.566406 L 20.566406 47.566406 C 21.441406 47.566406 22.148438 46.859375 22.148438 45.984375 C 22.148438 45.109375 21.441406 44.402344 20.566406 44.402344 L 15.820312 44.402344 L 15.820312 37.816406 C 16.894531 37.675781 17.949219 37.457031 18.945312 37.105469 C 18.035156 36.351562 17.210938 35.5 16.472656 34.578125 C 15.75 34.726562 15.003906 34.804688 14.238281 34.804688 C 8.132812 34.804688 3.164062 29.835938 3.164062 23.730469 C 3.164062 17.625 8.132812 12.65625 14.238281 12.65625 C 20.546875 12.65625 25.3125 18.039062 25.3125 23.730469 C 25.3125 25.5625 24.820312 27.265625 24.03125 28.792969 C 24.722656 29.613281 25.566406 30.289062 26.535156 30.777344 C 27.738281 28.6875 28.476562 26.304688 28.476562 23.730469 C 28.476562 16.390625 22.441406 9.492188 14.238281 9.492188 C 6.386719 9.492188 0 15.878906 0 23.730469 C 0 31.039062 5.554688 37.011719 12.65625 37.808594 Z M 12.65625 37.808594 "/>
        <path style=" stroke:none;fill-rule:nonzero;fill:rgb(100%,54.509804%,0%);fill-opacity:1;"
              d="M 52.417969 0 L 42.925781 0 C 42.050781 0 41.34375 0.707031 41.34375 1.582031 C 41.34375 2.457031 42.050781 3.164062 42.925781 3.164062 L 48.597656 3.164062 L 38.894531 12.65625 C 36.460938 10.707031 33.414062 9.492188 30.058594 9.492188 C 28.402344 9.492188 26.832031 9.832031 25.351562 10.355469 C 26.261719 11.109375 27.085938 11.960938 27.824219 12.882812 C 28.546875 12.734375 29.292969 12.65625 30.058594 12.65625 C 36.164062 12.65625 41.132812 17.625 41.132812 23.730469 C 41.132812 29.835938 36.164062 34.804688 30.058594 34.804688 C 23.792969 34.804688 18.984375 29.480469 18.984375 23.730469 C 18.984375 21.898438 19.476562 20.195312 20.265625 18.667969 C 19.574219 17.847656 18.730469 17.171875 17.761719 16.683594 C 16.558594 18.773438 15.820312 21.15625 15.820312 23.730469 C 15.820312 31.140625 22.015625 37.96875 30.058594 37.96875 C 37.910156 37.96875 44.296875 31.582031 44.296875 23.730469 C 44.296875 20.375 43.082031 17.328125 41.132812 14.894531 L 50.835938 5.402344 L 50.835938 11.074219 C 50.835938 11.949219 51.542969 12.65625 52.417969 12.65625 C 53.292969 12.65625 54 11.949219 54 11.074219 L 54 1.582031 C 54 0.714844 53.289062 0 52.417969 0 Z M 52.417969 0 "/>
    </g>
</svg>
